<mxfile host="app.diagrams.net" agent="Mozilla/5.0 (Windows NT 10.0; Win64; x64) AppleWebKit/537.36 (KHTML, like Gecko) Chrome/135.0.0.0 Safari/537.36" version="26.2.14">
  <diagram name="Page-1" id="Ry5E4VyP3oIoueq6zQVK">
    <mxGraphModel grid="1" page="1" gridSize="10" guides="1" tooltips="1" connect="1" arrows="1" fold="1" pageScale="1" pageWidth="827" pageHeight="1169" math="0" shadow="0">
      <root>
        <mxCell id="0" />
        <mxCell id="1" parent="0" />
        <mxCell id="hg9_Pr8IPu3EkkVxl7I2-6" value="" style="rounded=0;whiteSpace=wrap;html=1;align=center;fontColor=#000000;" vertex="1" parent="1">
          <mxGeometry x="620" y="490" width="100" height="140" as="geometry" />
        </mxCell>
        <mxCell id="FKnu9fOOEgawx1uUUJKB-68" value="&lt;h1&gt;OnsetsAndFrames&lt;/h1&gt;" style="text;html=1;align=center;verticalAlign=middle;whiteSpace=wrap;rounded=0;fontStyle=1;fontColor=#000000;" vertex="1" parent="1">
          <mxGeometry x="590" y="150" width="305" height="40" as="geometry" />
        </mxCell>
        <mxCell id="FKnu9fOOEgawx1uUUJKB-69" value="" style="rounded=0;whiteSpace=wrap;html=1;align=center;fontColor=#000000;" vertex="1" parent="1">
          <mxGeometry x="780" y="310" width="100" height="200" as="geometry" />
        </mxCell>
        <mxCell id="hg9_Pr8IPu3EkkVxl7I2-3" style="edgeStyle=orthogonalEdgeStyle;rounded=0;orthogonalLoop=1;jettySize=auto;html=1;entryX=0.5;entryY=0;entryDx=0;entryDy=0;" edge="1" parent="1" source="FKnu9fOOEgawx1uUUJKB-71" target="hg9_Pr8IPu3EkkVxl7I2-2">
          <mxGeometry relative="1" as="geometry" />
        </mxCell>
        <mxCell id="FKnu9fOOEgawx1uUUJKB-71" value="ConvStack" style="rounded=0;whiteSpace=wrap;html=1;fillColor=#FFE599;fontColor=#000000;" vertex="1" parent="1">
          <mxGeometry x="790" y="320" width="80" height="40" as="geometry" />
        </mxCell>
        <mxCell id="FKnu9fOOEgawx1uUUJKB-72" style="edgeStyle=orthogonalEdgeStyle;rounded=0;orthogonalLoop=1;jettySize=auto;html=1;entryX=0.5;entryY=0;entryDx=0;entryDy=0;fontColor=#000000;" edge="1" parent="1" source="FKnu9fOOEgawx1uUUJKB-73" target="FKnu9fOOEgawx1uUUJKB-75">
          <mxGeometry relative="1" as="geometry" />
        </mxCell>
        <mxCell id="FKnu9fOOEgawx1uUUJKB-73" value="Linear" style="rounded=0;whiteSpace=wrap;html=1;fontColor=#000000;" vertex="1" parent="1">
          <mxGeometry x="790" y="440" width="80" height="20" as="geometry" />
        </mxCell>
        <mxCell id="FKnu9fOOEgawx1uUUJKB-74" style="edgeStyle=orthogonalEdgeStyle;rounded=0;orthogonalLoop=1;jettySize=auto;html=1;fontColor=#000000;" edge="1" parent="1" source="FKnu9fOOEgawx1uUUJKB-75" target="FKnu9fOOEgawx1uUUJKB-85">
          <mxGeometry relative="1" as="geometry" />
        </mxCell>
        <mxCell id="hg9_Pr8IPu3EkkVxl7I2-19" style="edgeStyle=orthogonalEdgeStyle;rounded=0;orthogonalLoop=1;jettySize=auto;html=1;entryX=1;entryY=0.5;entryDx=0;entryDy=0;exitX=0.5;exitY=1;exitDx=0;exitDy=0;" edge="1" parent="1" source="FKnu9fOOEgawx1uUUJKB-75" target="hg9_Pr8IPu3EkkVxl7I2-20">
          <mxGeometry relative="1" as="geometry" />
        </mxCell>
        <mxCell id="FKnu9fOOEgawx1uUUJKB-75" value="Sigmoid" style="rounded=0;whiteSpace=wrap;html=1;fontColor=#000000;" vertex="1" parent="1">
          <mxGeometry x="790" y="480" width="80" height="20" as="geometry" />
        </mxCell>
        <mxCell id="FKnu9fOOEgawx1uUUJKB-76" style="edgeStyle=orthogonalEdgeStyle;rounded=0;orthogonalLoop=1;jettySize=auto;html=1;fontColor=#000000;" edge="1" parent="1" source="FKnu9fOOEgawx1uUUJKB-77" target="FKnu9fOOEgawx1uUUJKB-81">
          <mxGeometry relative="1" as="geometry" />
        </mxCell>
        <mxCell id="FKnu9fOOEgawx1uUUJKB-77" value="Input&lt;div&gt;&lt;font style=&quot;font-size: 9px;&quot;&gt;(Audio)&lt;/font&gt;&lt;/div&gt;" style="rounded=0;whiteSpace=wrap;html=1;fontStyle=0;fillColor=#E6E6E6;fontColor=#000000;" vertex="1" parent="1">
          <mxGeometry x="630" y="200" width="80" height="30" as="geometry" />
        </mxCell>
        <mxCell id="FKnu9fOOEgawx1uUUJKB-78" value="&lt;p&gt;&lt;font&gt;B×&lt;span style=&quot;background-color: transparent;&quot;&gt;T&lt;/span&gt;&lt;span style=&quot;background-color: transparent;&quot;&gt;×C&#39;&lt;/span&gt;&lt;/font&gt;&lt;/p&gt;" style="text;html=1;align=center;verticalAlign=middle;whiteSpace=wrap;rounded=0;fontColor=#000000;fontSize=9;" vertex="1" parent="1">
          <mxGeometry x="830" y="360" width="50" height="20" as="geometry" />
        </mxCell>
        <mxCell id="FKnu9fOOEgawx1uUUJKB-79" value="&lt;p&gt;&lt;font&gt;B&lt;span style=&quot;background-color: transparent;&quot;&gt;×&lt;/span&gt;&lt;span style=&quot;background-color: transparent;&quot;&gt;T&lt;/span&gt;&lt;span style=&quot;background-color: transparent;&quot;&gt;×C&quot;&lt;/span&gt;&lt;/font&gt;&lt;/p&gt;" style="text;html=1;align=center;verticalAlign=middle;whiteSpace=wrap;rounded=0;fontColor=#000000;fontSize=9;" vertex="1" parent="1">
          <mxGeometry x="830" y="460" width="50" height="20" as="geometry" />
        </mxCell>
        <mxCell id="FKnu9fOOEgawx1uUUJKB-80" style="edgeStyle=orthogonalEdgeStyle;rounded=0;orthogonalLoop=1;jettySize=auto;html=1;exitX=0.5;exitY=1;exitDx=0;exitDy=0;entryX=0.5;entryY=0;entryDx=0;entryDy=0;fontColor=#000000;" edge="1" parent="1" source="FKnu9fOOEgawx1uUUJKB-81" target="FKnu9fOOEgawx1uUUJKB-71">
          <mxGeometry relative="1" as="geometry" />
        </mxCell>
        <mxCell id="FKnu9fOOEgawx1uUUJKB-81" value="LogMel&lt;div&gt;Spectrogram&lt;/div&gt;" style="rounded=0;whiteSpace=wrap;html=1;fontColor=#000000;" vertex="1" parent="1">
          <mxGeometry x="630" y="250" width="80" height="30" as="geometry" />
        </mxCell>
        <mxCell id="FKnu9fOOEgawx1uUUJKB-82" value="&lt;p&gt;&lt;font&gt;B&lt;span style=&quot;background-color: transparent;&quot;&gt;×&lt;/span&gt;&lt;span style=&quot;background-color: transparent;&quot;&gt;T&lt;/span&gt;&lt;span style=&quot;background-color: transparent;&quot;&gt;×&lt;/span&gt;&lt;span style=&quot;background-color: transparent;&quot;&gt;F&lt;/span&gt;&lt;/font&gt;&lt;/p&gt;" style="text;html=1;align=center;verticalAlign=middle;whiteSpace=wrap;rounded=0;fontColor=#000000;fontSize=9;" vertex="1" parent="1">
          <mxGeometry x="670" y="280" width="50" height="20" as="geometry" />
        </mxCell>
        <mxCell id="FKnu9fOOEgawx1uUUJKB-83" value="&lt;h3&gt;Onset Stack&lt;/h3&gt;" style="text;html=1;align=center;verticalAlign=middle;whiteSpace=wrap;rounded=0;fontStyle=1;fontColor=#000000;" vertex="1" parent="1">
          <mxGeometry x="730" y="350" width="50" height="40" as="geometry" />
        </mxCell>
        <mxCell id="FKnu9fOOEgawx1uUUJKB-84" value="&lt;p&gt;&lt;font&gt;B×L&lt;/font&gt;&lt;/p&gt;" style="text;html=1;align=center;verticalAlign=middle;whiteSpace=wrap;rounded=0;fontColor=#000000;fontSize=9;" vertex="1" parent="1">
          <mxGeometry x="670" y="230" width="50" height="20" as="geometry" />
        </mxCell>
        <mxCell id="FKnu9fOOEgawx1uUUJKB-85" value="onset_pred" style="rounded=0;whiteSpace=wrap;html=1;fillColor=#E6E6E6;fontColor=#000000;" vertex="1" parent="1">
          <mxGeometry x="790" y="650" width="80" height="20" as="geometry" />
        </mxCell>
        <mxCell id="FKnu9fOOEgawx1uUUJKB-86" value="&lt;h3&gt;Pre Frame Stack&lt;/h3&gt;" style="text;html=1;align=center;verticalAlign=middle;whiteSpace=wrap;rounded=0;fontStyle=1;fontColor=#000000;" vertex="1" parent="1">
          <mxGeometry x="570" y="360" width="50" height="40" as="geometry" />
        </mxCell>
        <mxCell id="FKnu9fOOEgawx1uUUJKB-87" value="" style="rounded=0;whiteSpace=wrap;html=1;align=center;fontColor=#000000;" vertex="1" parent="1">
          <mxGeometry x="620" y="310" width="100" height="140" as="geometry" />
        </mxCell>
        <mxCell id="FKnu9fOOEgawx1uUUJKB-88" value="" style="edgeStyle=orthogonalEdgeStyle;rounded=0;orthogonalLoop=1;jettySize=auto;html=1;entryX=0.5;entryY=0;entryDx=0;entryDy=0;fontColor=#000000;" edge="1" parent="1" source="FKnu9fOOEgawx1uUUJKB-89" target="FKnu9fOOEgawx1uUUJKB-91">
          <mxGeometry relative="1" as="geometry" />
        </mxCell>
        <mxCell id="FKnu9fOOEgawx1uUUJKB-89" value="ConvStack" style="rounded=0;whiteSpace=wrap;html=1;fillColor=#FFE599;fontColor=#000000;" vertex="1" parent="1">
          <mxGeometry x="630" y="320" width="80" height="40" as="geometry" />
        </mxCell>
        <mxCell id="FKnu9fOOEgawx1uUUJKB-90" style="edgeStyle=orthogonalEdgeStyle;rounded=0;orthogonalLoop=1;jettySize=auto;html=1;entryX=0.5;entryY=0;entryDx=0;entryDy=0;fontColor=#000000;" edge="1" parent="1" source="FKnu9fOOEgawx1uUUJKB-91" target="FKnu9fOOEgawx1uUUJKB-93">
          <mxGeometry relative="1" as="geometry" />
        </mxCell>
        <mxCell id="FKnu9fOOEgawx1uUUJKB-91" value="Linear" style="rounded=0;whiteSpace=wrap;html=1;fontColor=#000000;" vertex="1" parent="1">
          <mxGeometry x="630" y="380" width="80" height="20" as="geometry" />
        </mxCell>
        <mxCell id="hg9_Pr8IPu3EkkVxl7I2-13" style="edgeStyle=orthogonalEdgeStyle;rounded=0;orthogonalLoop=1;jettySize=auto;html=1;entryX=0.5;entryY=0;entryDx=0;entryDy=0;" edge="1" parent="1" source="FKnu9fOOEgawx1uUUJKB-93" target="hg9_Pr8IPu3EkkVxl7I2-20">
          <mxGeometry relative="1" as="geometry" />
        </mxCell>
        <mxCell id="FKnu9fOOEgawx1uUUJKB-93" value="Sigmoid" style="rounded=0;whiteSpace=wrap;html=1;fontColor=#000000;" vertex="1" parent="1">
          <mxGeometry x="630" y="420" width="80" height="20" as="geometry" />
        </mxCell>
        <mxCell id="FKnu9fOOEgawx1uUUJKB-94" value="&lt;p&gt;&lt;font&gt;B×&lt;span style=&quot;background-color: transparent;&quot;&gt;T&lt;/span&gt;&lt;span style=&quot;background-color: transparent;&quot;&gt;×C&#39;&lt;/span&gt;&lt;/font&gt;&lt;/p&gt;" style="text;html=1;align=center;verticalAlign=middle;whiteSpace=wrap;rounded=0;fontColor=#000000;fontSize=9;" vertex="1" parent="1">
          <mxGeometry x="670" y="360" width="50" height="20" as="geometry" />
        </mxCell>
        <mxCell id="FKnu9fOOEgawx1uUUJKB-95" value="&lt;p&gt;&lt;font&gt;B×&lt;span style=&quot;background-color: transparent;&quot;&gt;T&lt;/span&gt;&lt;span style=&quot;background-color: transparent;&quot;&gt;×C&quot;&lt;/span&gt;&lt;/font&gt;&lt;/p&gt;" style="text;html=1;align=center;verticalAlign=middle;whiteSpace=wrap;rounded=0;fontColor=#000000;fontSize=9;" vertex="1" parent="1">
          <mxGeometry x="670" y="400" width="50" height="20" as="geometry" />
        </mxCell>
        <mxCell id="FKnu9fOOEgawx1uUUJKB-96" value="frame_pred" style="rounded=0;whiteSpace=wrap;html=1;fillColor=#E6E6E6;fontColor=#000000;" vertex="1" parent="1">
          <mxGeometry x="630" y="650" width="80" height="20" as="geometry" />
        </mxCell>
        <mxCell id="FKnu9fOOEgawx1uUUJKB-97" style="edgeStyle=orthogonalEdgeStyle;rounded=0;orthogonalLoop=1;jettySize=auto;html=1;fontColor=#000000;" edge="1" parent="1" source="FKnu9fOOEgawx1uUUJKB-81" target="FKnu9fOOEgawx1uUUJKB-89">
          <mxGeometry relative="1" as="geometry">
            <Array as="points">
              <mxPoint x="670" y="310" />
              <mxPoint x="670" y="310" />
            </Array>
          </mxGeometry>
        </mxCell>
        <mxCell id="FKnu9fOOEgawx1uUUJKB-100" value="&lt;p&gt;&lt;font&gt;B×&lt;span style=&quot;background-color: transparent;&quot;&gt;T&lt;/span&gt;&lt;span style=&quot;background-color: transparent;&quot;&gt;×C&quot;&lt;/span&gt;&lt;/font&gt;&lt;/p&gt;" style="text;html=1;align=center;verticalAlign=middle;whiteSpace=wrap;rounded=0;fontColor=#000000;fontSize=9;" vertex="1" parent="1">
          <mxGeometry x="670" y="670" width="50" height="20" as="geometry" />
        </mxCell>
        <mxCell id="FKnu9fOOEgawx1uUUJKB-101" value="&lt;p&gt;&lt;font&gt;B×&lt;span style=&quot;background-color: transparent;&quot;&gt;T&lt;/span&gt;&lt;span style=&quot;background-color: transparent;&quot;&gt;×C&quot;&lt;/span&gt;&lt;/font&gt;&lt;/p&gt;" style="text;html=1;align=center;verticalAlign=middle;whiteSpace=wrap;rounded=0;fontColor=#000000;fontSize=9;" vertex="1" parent="1">
          <mxGeometry x="830" y="670" width="50" height="20" as="geometry" />
        </mxCell>
        <mxCell id="hg9_Pr8IPu3EkkVxl7I2-1" value="&lt;h3&gt;Post Frame Stack&lt;/h3&gt;" style="text;html=1;align=center;verticalAlign=middle;whiteSpace=wrap;rounded=0;fontStyle=1;fontColor=#000000;" vertex="1" parent="1">
          <mxGeometry x="570" y="540" width="50" height="40" as="geometry" />
        </mxCell>
        <mxCell id="hg9_Pr8IPu3EkkVxl7I2-4" style="edgeStyle=orthogonalEdgeStyle;rounded=0;orthogonalLoop=1;jettySize=auto;html=1;entryX=0.5;entryY=0;entryDx=0;entryDy=0;" edge="1" parent="1" source="hg9_Pr8IPu3EkkVxl7I2-2" target="FKnu9fOOEgawx1uUUJKB-73">
          <mxGeometry relative="1" as="geometry" />
        </mxCell>
        <mxCell id="hg9_Pr8IPu3EkkVxl7I2-2" value="BiLSTM" style="rounded=0;whiteSpace=wrap;html=1;fontColor=#000000;fillColor=#CCFFFF;" vertex="1" parent="1">
          <mxGeometry x="790" y="380" width="80" height="40" as="geometry" />
        </mxCell>
        <mxCell id="hg9_Pr8IPu3EkkVxl7I2-5" value="&lt;p&gt;&lt;font&gt;B×&lt;span style=&quot;background-color: transparent;&quot;&gt;T&lt;/span&gt;&lt;span style=&quot;background-color: transparent;&quot;&gt;×2R&lt;/span&gt;&lt;/font&gt;&lt;/p&gt;" style="text;html=1;align=center;verticalAlign=middle;whiteSpace=wrap;rounded=0;fontColor=#000000;fontSize=9;" vertex="1" parent="1">
          <mxGeometry x="830" y="420" width="50" height="20" as="geometry" />
        </mxCell>
        <mxCell id="hg9_Pr8IPu3EkkVxl7I2-17" style="edgeStyle=orthogonalEdgeStyle;rounded=0;orthogonalLoop=1;jettySize=auto;html=1;entryX=0.5;entryY=0;entryDx=0;entryDy=0;" edge="1" parent="1" source="hg9_Pr8IPu3EkkVxl7I2-8" target="FKnu9fOOEgawx1uUUJKB-96">
          <mxGeometry relative="1" as="geometry" />
        </mxCell>
        <mxCell id="hg9_Pr8IPu3EkkVxl7I2-8" value="Sigmoid" style="rounded=0;whiteSpace=wrap;html=1;fontColor=#000000;" vertex="1" parent="1">
          <mxGeometry x="630" y="600" width="80" height="20" as="geometry" />
        </mxCell>
        <mxCell id="hg9_Pr8IPu3EkkVxl7I2-15" style="edgeStyle=orthogonalEdgeStyle;rounded=0;orthogonalLoop=1;jettySize=auto;html=1;entryX=0.5;entryY=0;entryDx=0;entryDy=0;" edge="1" parent="1" source="hg9_Pr8IPu3EkkVxl7I2-10" target="hg9_Pr8IPu3EkkVxl7I2-8">
          <mxGeometry relative="1" as="geometry" />
        </mxCell>
        <mxCell id="hg9_Pr8IPu3EkkVxl7I2-10" value="Linear" style="rounded=0;whiteSpace=wrap;html=1;fontColor=#000000;" vertex="1" parent="1">
          <mxGeometry x="630" y="560" width="80" height="20" as="geometry" />
        </mxCell>
        <mxCell id="hg9_Pr8IPu3EkkVxl7I2-14" style="edgeStyle=orthogonalEdgeStyle;rounded=0;orthogonalLoop=1;jettySize=auto;html=1;entryX=0.5;entryY=0;entryDx=0;entryDy=0;" edge="1" parent="1" source="hg9_Pr8IPu3EkkVxl7I2-12" target="hg9_Pr8IPu3EkkVxl7I2-10">
          <mxGeometry relative="1" as="geometry" />
        </mxCell>
        <mxCell id="hg9_Pr8IPu3EkkVxl7I2-12" value="BiLSTM" style="rounded=0;whiteSpace=wrap;html=1;fontColor=#000000;fillColor=#CCFFFF;" vertex="1" parent="1">
          <mxGeometry x="630" y="500" width="80" height="40" as="geometry" />
        </mxCell>
        <mxCell id="hg9_Pr8IPu3EkkVxl7I2-21" style="edgeStyle=orthogonalEdgeStyle;rounded=0;orthogonalLoop=1;jettySize=auto;html=1;entryX=0.5;entryY=0;entryDx=0;entryDy=0;" edge="1" parent="1" source="hg9_Pr8IPu3EkkVxl7I2-20" target="hg9_Pr8IPu3EkkVxl7I2-12">
          <mxGeometry relative="1" as="geometry" />
        </mxCell>
        <mxCell id="hg9_Pr8IPu3EkkVxl7I2-20" value="Concat" style="rounded=0;whiteSpace=wrap;html=1;fontColor=#000000;" vertex="1" parent="1">
          <mxGeometry x="630" y="460" width="80" height="20" as="geometry" />
        </mxCell>
        <mxCell id="hg9_Pr8IPu3EkkVxl7I2-22" value="&lt;p&gt;&lt;font&gt;B×&lt;span style=&quot;background-color: transparent;&quot;&gt;T&lt;/span&gt;&lt;span style=&quot;background-color: transparent;&quot;&gt;×2C&quot;&lt;/span&gt;&lt;/font&gt;&lt;/p&gt;" style="text;html=1;align=center;verticalAlign=middle;whiteSpace=wrap;rounded=0;fontColor=#000000;fontSize=9;" vertex="1" parent="1">
          <mxGeometry x="670" y="480" width="50" height="20" as="geometry" />
        </mxCell>
        <mxCell id="hg9_Pr8IPu3EkkVxl7I2-23" value="&lt;p&gt;&lt;font&gt;B×&lt;span style=&quot;background-color: transparent;&quot;&gt;T&lt;/span&gt;&lt;span style=&quot;background-color: transparent;&quot;&gt;×2R&lt;/span&gt;&lt;/font&gt;&lt;/p&gt;" style="text;html=1;align=center;verticalAlign=middle;whiteSpace=wrap;rounded=0;fontColor=#000000;fontSize=9;" vertex="1" parent="1">
          <mxGeometry x="670" y="540" width="50" height="20" as="geometry" />
        </mxCell>
        <mxCell id="hg9_Pr8IPu3EkkVxl7I2-24" value="&lt;p&gt;&lt;font&gt;B×&lt;span style=&quot;background-color: transparent;&quot;&gt;T&lt;/span&gt;&lt;span style=&quot;background-color: transparent;&quot;&gt;×C&quot;&lt;/span&gt;&lt;/font&gt;&lt;/p&gt;" style="text;html=1;align=center;verticalAlign=middle;whiteSpace=wrap;rounded=0;fontColor=#000000;fontSize=9;" vertex="1" parent="1">
          <mxGeometry x="670" y="580" width="50" height="20" as="geometry" />
        </mxCell>
        <mxCell id="hg9_Pr8IPu3EkkVxl7I2-25" value="&lt;h1&gt;BasicOnsetsAndFrames&lt;/h1&gt;" style="text;html=1;align=center;verticalAlign=middle;whiteSpace=wrap;rounded=0;fontStyle=1;fontColor=#000000;" vertex="1" parent="1">
          <mxGeometry x="140" y="150" width="305" height="40" as="geometry" />
        </mxCell>
        <mxCell id="hg9_Pr8IPu3EkkVxl7I2-26" value="" style="rounded=0;whiteSpace=wrap;html=1;align=center;fontColor=#000000;" vertex="1" parent="1">
          <mxGeometry x="330" y="310" width="100" height="140" as="geometry" />
        </mxCell>
        <mxCell id="hg9_Pr8IPu3EkkVxl7I2-27" style="edgeStyle=orthogonalEdgeStyle;rounded=0;orthogonalLoop=1;jettySize=auto;html=1;fontColor=#000000;" edge="1" parent="1" source="hg9_Pr8IPu3EkkVxl7I2-28" target="hg9_Pr8IPu3EkkVxl7I2-30">
          <mxGeometry relative="1" as="geometry" />
        </mxCell>
        <mxCell id="hg9_Pr8IPu3EkkVxl7I2-28" value="ConvStack" style="rounded=0;whiteSpace=wrap;html=1;fillColor=#FFE599;fontColor=#000000;" vertex="1" parent="1">
          <mxGeometry x="340" y="320" width="80" height="40" as="geometry" />
        </mxCell>
        <mxCell id="hg9_Pr8IPu3EkkVxl7I2-29" style="edgeStyle=orthogonalEdgeStyle;rounded=0;orthogonalLoop=1;jettySize=auto;html=1;entryX=0.5;entryY=0;entryDx=0;entryDy=0;fontColor=#000000;" edge="1" parent="1" source="hg9_Pr8IPu3EkkVxl7I2-30" target="hg9_Pr8IPu3EkkVxl7I2-32">
          <mxGeometry relative="1" as="geometry" />
        </mxCell>
        <mxCell id="hg9_Pr8IPu3EkkVxl7I2-30" value="Linear" style="rounded=0;whiteSpace=wrap;html=1;fontColor=#000000;" vertex="1" parent="1">
          <mxGeometry x="340" y="380" width="80" height="20" as="geometry" />
        </mxCell>
        <mxCell id="hg9_Pr8IPu3EkkVxl7I2-31" style="edgeStyle=orthogonalEdgeStyle;rounded=0;orthogonalLoop=1;jettySize=auto;html=1;fontColor=#000000;" edge="1" parent="1" source="hg9_Pr8IPu3EkkVxl7I2-32" target="hg9_Pr8IPu3EkkVxl7I2-42">
          <mxGeometry relative="1" as="geometry" />
        </mxCell>
        <mxCell id="hg9_Pr8IPu3EkkVxl7I2-32" value="Sigmoid" style="rounded=0;whiteSpace=wrap;html=1;fontColor=#000000;" vertex="1" parent="1">
          <mxGeometry x="340" y="420" width="80" height="20" as="geometry" />
        </mxCell>
        <mxCell id="hg9_Pr8IPu3EkkVxl7I2-33" style="edgeStyle=orthogonalEdgeStyle;rounded=0;orthogonalLoop=1;jettySize=auto;html=1;fontColor=#000000;" edge="1" parent="1" source="hg9_Pr8IPu3EkkVxl7I2-34" target="hg9_Pr8IPu3EkkVxl7I2-38">
          <mxGeometry relative="1" as="geometry" />
        </mxCell>
        <mxCell id="hg9_Pr8IPu3EkkVxl7I2-34" value="Input&lt;div&gt;&lt;font style=&quot;font-size: 9px;&quot;&gt;(Audio)&lt;/font&gt;&lt;/div&gt;" style="rounded=0;whiteSpace=wrap;html=1;fontStyle=0;fillColor=#E6E6E6;fontColor=#000000;" vertex="1" parent="1">
          <mxGeometry x="180" y="200" width="80" height="30" as="geometry" />
        </mxCell>
        <mxCell id="hg9_Pr8IPu3EkkVxl7I2-35" value="&lt;p&gt;&lt;font&gt;B×&lt;span style=&quot;background-color: transparent;&quot;&gt;T&lt;/span&gt;&lt;span style=&quot;background-color: transparent;&quot;&gt;×C&#39;&lt;/span&gt;&lt;/font&gt;&lt;/p&gt;" style="text;html=1;align=center;verticalAlign=middle;whiteSpace=wrap;rounded=0;fontColor=#000000;fontSize=9;" vertex="1" parent="1">
          <mxGeometry x="380" y="360" width="50" height="20" as="geometry" />
        </mxCell>
        <mxCell id="hg9_Pr8IPu3EkkVxl7I2-36" value="&lt;p&gt;&lt;font&gt;B&lt;span style=&quot;background-color: transparent;&quot;&gt;×&lt;/span&gt;&lt;span style=&quot;background-color: transparent;&quot;&gt;T&lt;/span&gt;&lt;span style=&quot;background-color: transparent;&quot;&gt;×C&quot;&lt;/span&gt;&lt;/font&gt;&lt;/p&gt;" style="text;html=1;align=center;verticalAlign=middle;whiteSpace=wrap;rounded=0;fontColor=#000000;fontSize=9;" vertex="1" parent="1">
          <mxGeometry x="380" y="400" width="50" height="20" as="geometry" />
        </mxCell>
        <mxCell id="hg9_Pr8IPu3EkkVxl7I2-37" style="edgeStyle=orthogonalEdgeStyle;rounded=0;orthogonalLoop=1;jettySize=auto;html=1;exitX=0.5;exitY=1;exitDx=0;exitDy=0;entryX=0.5;entryY=0;entryDx=0;entryDy=0;fontColor=#000000;" edge="1" parent="1" source="hg9_Pr8IPu3EkkVxl7I2-38" target="hg9_Pr8IPu3EkkVxl7I2-28">
          <mxGeometry relative="1" as="geometry" />
        </mxCell>
        <mxCell id="hg9_Pr8IPu3EkkVxl7I2-38" value="LogMel&lt;div&gt;Spectrogram&lt;/div&gt;" style="rounded=0;whiteSpace=wrap;html=1;fontColor=#000000;" vertex="1" parent="1">
          <mxGeometry x="180" y="250" width="80" height="30" as="geometry" />
        </mxCell>
        <mxCell id="hg9_Pr8IPu3EkkVxl7I2-39" value="&lt;p&gt;&lt;font&gt;B&lt;span style=&quot;background-color: transparent;&quot;&gt;×&lt;/span&gt;&lt;span style=&quot;background-color: transparent;&quot;&gt;T&lt;/span&gt;&lt;span style=&quot;background-color: transparent;&quot;&gt;×&lt;/span&gt;&lt;span style=&quot;background-color: transparent;&quot;&gt;F&lt;/span&gt;&lt;/font&gt;&lt;/p&gt;" style="text;html=1;align=center;verticalAlign=middle;whiteSpace=wrap;rounded=0;fontColor=#000000;fontSize=9;" vertex="1" parent="1">
          <mxGeometry x="220" y="280" width="50" height="20" as="geometry" />
        </mxCell>
        <mxCell id="hg9_Pr8IPu3EkkVxl7I2-40" value="&lt;h3&gt;Onset Stack&lt;/h3&gt;" style="text;html=1;align=center;verticalAlign=middle;whiteSpace=wrap;rounded=0;fontStyle=1;fontColor=#000000;" vertex="1" parent="1">
          <mxGeometry x="280" y="350" width="50" height="40" as="geometry" />
        </mxCell>
        <mxCell id="hg9_Pr8IPu3EkkVxl7I2-41" value="&lt;p&gt;&lt;font&gt;B×L&lt;/font&gt;&lt;/p&gt;" style="text;html=1;align=center;verticalAlign=middle;whiteSpace=wrap;rounded=0;fontColor=#000000;fontSize=9;" vertex="1" parent="1">
          <mxGeometry x="220" y="230" width="50" height="20" as="geometry" />
        </mxCell>
        <mxCell id="hg9_Pr8IPu3EkkVxl7I2-42" value="onset_pred" style="rounded=0;whiteSpace=wrap;html=1;fillColor=#E6E6E6;fontColor=#000000;" vertex="1" parent="1">
          <mxGeometry x="340" y="470" width="80" height="20" as="geometry" />
        </mxCell>
        <mxCell id="hg9_Pr8IPu3EkkVxl7I2-43" value="&lt;h3&gt;Frame Stack&lt;/h3&gt;" style="text;html=1;align=center;verticalAlign=middle;whiteSpace=wrap;rounded=0;fontStyle=1;fontColor=#000000;" vertex="1" parent="1">
          <mxGeometry x="120" y="350" width="50" height="40" as="geometry" />
        </mxCell>
        <mxCell id="hg9_Pr8IPu3EkkVxl7I2-44" value="" style="rounded=0;whiteSpace=wrap;html=1;align=center;fontColor=#000000;" vertex="1" parent="1">
          <mxGeometry x="170" y="310" width="100" height="140" as="geometry" />
        </mxCell>
        <mxCell id="hg9_Pr8IPu3EkkVxl7I2-45" value="" style="edgeStyle=orthogonalEdgeStyle;rounded=0;orthogonalLoop=1;jettySize=auto;html=1;entryX=0.5;entryY=0;entryDx=0;entryDy=0;fontColor=#000000;" edge="1" parent="1" source="hg9_Pr8IPu3EkkVxl7I2-46" target="hg9_Pr8IPu3EkkVxl7I2-48">
          <mxGeometry relative="1" as="geometry" />
        </mxCell>
        <mxCell id="hg9_Pr8IPu3EkkVxl7I2-46" value="ConvStack" style="rounded=0;whiteSpace=wrap;html=1;fillColor=#FFE599;fontColor=#000000;" vertex="1" parent="1">
          <mxGeometry x="180" y="320" width="80" height="40" as="geometry" />
        </mxCell>
        <mxCell id="hg9_Pr8IPu3EkkVxl7I2-47" style="edgeStyle=orthogonalEdgeStyle;rounded=0;orthogonalLoop=1;jettySize=auto;html=1;entryX=0.5;entryY=0;entryDx=0;entryDy=0;fontColor=#000000;" edge="1" parent="1" source="hg9_Pr8IPu3EkkVxl7I2-48" target="hg9_Pr8IPu3EkkVxl7I2-50">
          <mxGeometry relative="1" as="geometry" />
        </mxCell>
        <mxCell id="hg9_Pr8IPu3EkkVxl7I2-48" value="Linear" style="rounded=0;whiteSpace=wrap;html=1;fontColor=#000000;" vertex="1" parent="1">
          <mxGeometry x="180" y="380" width="80" height="20" as="geometry" />
        </mxCell>
        <mxCell id="hg9_Pr8IPu3EkkVxl7I2-49" style="edgeStyle=orthogonalEdgeStyle;rounded=0;orthogonalLoop=1;jettySize=auto;html=1;fontColor=#000000;" edge="1" parent="1" source="hg9_Pr8IPu3EkkVxl7I2-50" target="hg9_Pr8IPu3EkkVxl7I2-53">
          <mxGeometry relative="1" as="geometry" />
        </mxCell>
        <mxCell id="hg9_Pr8IPu3EkkVxl7I2-50" value="Sigmoid" style="rounded=0;whiteSpace=wrap;html=1;fontColor=#000000;" vertex="1" parent="1">
          <mxGeometry x="180" y="420" width="80" height="20" as="geometry" />
        </mxCell>
        <mxCell id="hg9_Pr8IPu3EkkVxl7I2-51" value="&lt;p&gt;&lt;font&gt;B×&lt;span style=&quot;background-color: transparent;&quot;&gt;T&lt;/span&gt;&lt;span style=&quot;background-color: transparent;&quot;&gt;×C&#39;&lt;/span&gt;&lt;/font&gt;&lt;/p&gt;" style="text;html=1;align=center;verticalAlign=middle;whiteSpace=wrap;rounded=0;fontColor=#000000;fontSize=9;" vertex="1" parent="1">
          <mxGeometry x="220" y="360" width="50" height="20" as="geometry" />
        </mxCell>
        <mxCell id="hg9_Pr8IPu3EkkVxl7I2-52" value="&lt;p&gt;&lt;font&gt;B×&lt;span style=&quot;background-color: transparent;&quot;&gt;T&lt;/span&gt;&lt;span style=&quot;background-color: transparent;&quot;&gt;×C&quot;&lt;/span&gt;&lt;/font&gt;&lt;/p&gt;" style="text;html=1;align=center;verticalAlign=middle;whiteSpace=wrap;rounded=0;fontColor=#000000;fontSize=9;" vertex="1" parent="1">
          <mxGeometry x="220" y="400" width="50" height="20" as="geometry" />
        </mxCell>
        <mxCell id="hg9_Pr8IPu3EkkVxl7I2-53" value="frame_pred" style="rounded=0;whiteSpace=wrap;html=1;fillColor=#E6E6E6;fontColor=#000000;" vertex="1" parent="1">
          <mxGeometry x="180" y="470" width="80" height="20" as="geometry" />
        </mxCell>
        <mxCell id="hg9_Pr8IPu3EkkVxl7I2-54" style="edgeStyle=orthogonalEdgeStyle;rounded=0;orthogonalLoop=1;jettySize=auto;html=1;fontColor=#000000;" edge="1" parent="1" source="hg9_Pr8IPu3EkkVxl7I2-38" target="hg9_Pr8IPu3EkkVxl7I2-46">
          <mxGeometry relative="1" as="geometry">
            <Array as="points">
              <mxPoint x="220" y="310" />
              <mxPoint x="220" y="310" />
            </Array>
          </mxGeometry>
        </mxCell>
        <mxCell id="hg9_Pr8IPu3EkkVxl7I2-55" value="&lt;p&gt;&lt;font&gt;B×&lt;span style=&quot;background-color: transparent;&quot;&gt;T&lt;/span&gt;&lt;span style=&quot;background-color: transparent;&quot;&gt;×C&quot;&lt;/span&gt;&lt;/font&gt;&lt;/p&gt;" style="text;html=1;align=center;verticalAlign=middle;whiteSpace=wrap;rounded=0;fontColor=#000000;fontSize=9;" vertex="1" parent="1">
          <mxGeometry x="220" y="490" width="50" height="20" as="geometry" />
        </mxCell>
        <mxCell id="hg9_Pr8IPu3EkkVxl7I2-56" value="&lt;p&gt;&lt;font&gt;B×&lt;span style=&quot;background-color: transparent;&quot;&gt;T&lt;/span&gt;&lt;span style=&quot;background-color: transparent;&quot;&gt;×C&quot;&lt;/span&gt;&lt;/font&gt;&lt;/p&gt;" style="text;html=1;align=center;verticalAlign=middle;whiteSpace=wrap;rounded=0;fontColor=#000000;fontSize=9;" vertex="1" parent="1">
          <mxGeometry x="380" y="490" width="50" height="20" as="geometry" />
        </mxCell>
      </root>
    </mxGraphModel>
  </diagram>
</mxfile>
